<svg width="1920" height="688" viewBox="0 0 1920 688" fill="none" xmlns="http://www.w3.org/2000/svg">
<g clip-path="url(#clip0_1334_61693)">
<rect width="1920" height="688" fill="url(#paint0_linear_1334_61693)"/>
<path d="M1092 471.5C1092.5 469.5 1092.3 451.6 1087.5 452M1087.5 452C1081.5 452.5 973.5 528 752.5 515M1087.5 452C1082.5 453.5 881.5 441 858 413M1087.5 452C990.5 460.083 842.5 355.999 707.5 356" stroke="white" stroke-width="3"/>
<g filter="url(#filter0_f_1334_61693)">
<path d="M1086 305.201C1086 254.28 1127.28 213 1178.2 213H1228.8C1279.72 213 1321 254.28 1321 305.201V509.842H1086V305.201Z" fill="#C4DFFE"/>
</g>
<rect x="578.5" y="337" width="140" height="37" rx="15" fill="#FFFFFE"/>
<rect x="578.5" y="337" width="140" height="37" rx="15" stroke="#0051B3" stroke-width="2"/>
<path d="M605.193 356.322H603.541V352.842H600.588V351.471H603.541V347.744H605.193V356.322ZM596.598 358.836H603.541V357.025H605.193V363.301H594.945V357.025H596.598V358.836ZM603.541 361.947V360.137H596.598V361.947H603.541ZM597.723 350.205C597.723 350.855 597.875 351.494 598.18 352.121C598.484 352.748 598.924 353.308 599.498 353.8C600.072 354.292 600.746 354.67 601.52 354.934L600.658 356.234C599.785 355.93 599.026 355.479 598.382 354.881C597.743 354.283 597.248 353.589 596.896 352.798C596.545 353.683 596.029 354.456 595.35 355.118C594.676 355.774 593.879 356.264 592.959 356.586L592.098 355.268C592.889 354.992 593.58 354.594 594.172 354.072C594.764 353.551 595.218 352.953 595.534 352.279C595.856 351.605 596.018 350.908 596.018 350.188V349.977H592.607V348.623H601.098V349.977H597.723V350.205ZM622.033 356.938H607.637V355.566H613.982V353.264H615.635V355.566H622.033V356.938ZM615.652 348.658C615.652 349.314 615.898 349.936 616.391 350.521C616.883 351.107 617.548 351.603 618.386 352.007C619.224 352.411 620.146 352.678 621.154 352.807L620.504 354.125C619.232 353.926 618.084 353.53 617.059 352.938C616.039 352.347 615.286 351.626 614.8 350.776C614.308 351.632 613.549 352.355 612.523 352.947C611.504 353.533 610.355 353.926 609.078 354.125L608.463 352.807C609.459 352.678 610.376 352.411 611.214 352.007C612.058 351.603 612.726 351.107 613.218 350.521C613.71 349.93 613.959 349.309 613.965 348.658V347.99H615.652V348.658ZM620.24 363.494H618.553V359.645H609.236V358.326H620.24V363.494ZM636.236 363.529H634.566V347.744H636.236V363.529ZM627.816 348.922C628.596 348.922 629.293 349.15 629.908 349.607C630.523 350.059 631.004 350.703 631.35 351.541C631.701 352.373 631.877 353.34 631.877 354.441C631.877 355.549 631.701 356.521 631.35 357.359C631.004 358.197 630.523 358.845 629.908 359.302C629.293 359.753 628.596 359.979 627.816 359.979C627.025 359.979 626.322 359.753 625.707 359.302C625.092 358.845 624.608 358.2 624.257 357.368C623.911 356.53 623.738 355.555 623.738 354.441C623.738 353.334 623.911 352.364 624.257 351.532C624.608 350.694 625.092 350.05 625.707 349.599C626.322 349.147 627.025 348.922 627.816 348.922ZM627.816 350.416C627.33 350.416 626.899 350.58 626.524 350.908C626.155 351.236 625.868 351.705 625.663 352.314C625.458 352.918 625.355 353.627 625.355 354.441C625.355 355.262 625.458 355.977 625.663 356.586C625.868 357.195 626.155 357.664 626.524 357.992C626.899 358.32 627.33 358.484 627.816 358.484C628.297 358.484 628.722 358.32 629.091 357.992C629.46 357.664 629.747 357.195 629.952 356.586C630.157 355.977 630.26 355.262 630.26 354.441C630.26 353.627 630.157 352.918 629.952 352.314C629.747 351.705 629.46 351.236 629.091 350.908C628.722 350.58 628.297 350.416 627.816 350.416ZM655.52 352.438H657.805V353.844H655.52V359.311H653.85V347.727H655.52V352.438ZM656.188 363.16H645.535V358.098H647.205V361.807H656.188V363.16ZM647.574 348.816C648.359 348.816 649.068 348.983 649.701 349.317C650.34 349.651 650.844 350.117 651.213 350.715C651.582 351.307 651.77 351.98 651.775 352.736C651.77 353.486 651.582 354.16 651.213 354.758C650.844 355.35 650.34 355.815 649.701 356.155C649.068 356.489 648.359 356.656 647.574 356.656C646.789 356.656 646.077 356.489 645.438 356.155C644.8 355.815 644.296 355.35 643.927 354.758C643.563 354.16 643.385 353.486 643.391 352.736C643.385 351.98 643.563 351.307 643.927 350.715C644.296 350.117 644.8 349.651 645.438 349.317C646.077 348.983 646.789 348.816 647.574 348.816ZM647.574 350.275C647.094 350.275 646.657 350.381 646.265 350.592C645.878 350.797 645.573 351.087 645.351 351.462C645.128 351.837 645.02 352.262 645.025 352.736C645.02 353.211 645.128 353.636 645.351 354.011C645.573 354.386 645.878 354.679 646.265 354.89C646.657 355.095 647.094 355.197 647.574 355.197C648.055 355.197 648.491 355.095 648.884 354.89C649.276 354.679 649.584 354.386 649.807 354.011C650.029 353.636 650.141 353.211 650.141 352.736C650.141 352.262 650.029 351.837 649.807 351.462C649.584 351.087 649.276 350.797 648.884 350.592C648.491 350.381 648.055 350.275 647.574 350.275ZM658.736 358.801C659.223 358.795 659.765 358.789 660.362 358.783C660.966 358.771 661.496 358.76 661.953 358.748V355.76H659.299V349.291H666.031V350.645H660.934V354.406H666.172V355.76H663.553V358.687C664.836 358.622 665.873 358.543 666.664 358.449L666.752 359.662C664.854 359.984 662.182 360.16 658.736 360.189L658.508 358.801H658.736ZM672.236 363.494H670.637V355.566H668.914V362.686H667.367V348.061H668.914V354.213H670.637V347.744H672.236V363.494ZM688.672 361.525H674.258V360.137H677.703V356.023C677.047 355.66 676.537 355.2 676.174 354.644C675.811 354.087 675.629 353.463 675.629 352.771C675.629 351.957 675.875 351.239 676.367 350.618C676.865 349.997 677.554 349.517 678.433 349.177C679.312 348.831 680.311 348.658 681.43 348.658C682.555 348.658 683.557 348.831 684.436 349.177C685.32 349.517 686.009 349.997 686.501 350.618C686.999 351.239 687.248 351.957 687.248 352.771C687.248 353.457 687.072 354.075 686.721 354.626C686.369 355.171 685.871 355.625 685.227 355.988V360.137H688.672V361.525ZM681.43 349.994C680.609 349.994 679.883 350.108 679.25 350.337C678.617 350.56 678.125 350.882 677.773 351.304C677.422 351.72 677.246 352.209 677.246 352.771C677.246 353.328 677.422 353.817 677.773 354.239C678.125 354.661 678.617 354.989 679.25 355.224C679.883 355.452 680.609 355.566 681.43 355.566C682.244 355.566 682.968 355.452 683.601 355.224C684.239 354.989 684.737 354.661 685.095 354.239C685.452 353.817 685.631 353.328 685.631 352.771C685.631 352.215 685.452 351.726 685.095 351.304C684.743 350.882 684.248 350.56 683.609 350.337C682.977 350.108 682.25 349.994 681.43 349.994ZM683.539 360.137V356.63C682.9 356.788 682.197 356.867 681.43 356.867C680.691 356.867 680 356.791 679.355 356.639V360.137H683.539ZM704.246 354.406H697.918V361.068H696.248V354.406H689.938V353.053H704.246V354.406Z" fill="#1B1C1D"/>
<rect x="706" y="397" width="155" height="37" rx="15" fill="#FFFFFE"/>
<rect x="706" y="397" width="155" height="37" rx="15" stroke="#0051B3" stroke-width="2"/>
<path d="M725.012 410.258C725.012 410.949 725.164 411.611 725.469 412.244C725.779 412.877 726.219 413.437 726.787 413.923C727.361 414.403 728.035 414.77 728.809 415.021L727.912 416.34C727.062 416.041 726.318 415.599 725.68 415.013C725.047 414.421 724.558 413.732 724.212 412.947C723.866 413.844 723.362 414.623 722.7 415.285C722.044 415.941 721.262 416.439 720.354 416.779L719.457 415.443C720.266 415.156 720.96 414.746 721.54 414.213C722.126 413.674 722.574 413.053 722.885 412.35C723.195 411.646 723.354 410.902 723.359 410.117V408.57H725.012V410.258ZM731.955 411.699H734.24V413.105H731.955V417.254H730.285V407.744H731.955V411.699ZM726.875 417.623C727.947 417.623 728.876 417.74 729.661 417.975C730.446 418.203 731.047 418.537 731.463 418.977C731.885 419.41 732.096 419.932 732.096 420.541C732.096 421.156 731.885 421.684 731.463 422.123C731.047 422.562 730.446 422.896 729.661 423.125C728.876 423.354 727.947 423.465 726.875 423.459C725.791 423.465 724.851 423.354 724.054 423.125C723.257 422.896 722.645 422.562 722.217 422.123C721.795 421.684 721.584 421.156 721.584 420.541C721.584 419.932 721.795 419.41 722.217 418.977C722.645 418.537 723.257 418.203 724.054 417.975C724.851 417.74 725.791 417.623 726.875 417.623ZM726.875 418.941C726.119 418.941 725.469 419.006 724.924 419.135C724.379 419.258 723.963 419.439 723.676 419.68C723.389 419.92 723.248 420.207 723.254 420.541C723.248 421.057 723.562 421.452 724.194 421.728C724.827 422.003 725.721 422.146 726.875 422.158C728.018 422.146 728.899 422.003 729.521 421.728C730.147 421.452 730.461 421.057 730.461 420.541C730.461 420.037 730.145 419.645 729.512 419.363C728.885 419.082 728.006 418.941 726.875 418.941ZM749.498 416.621H743.135V418.309H747.74V423.301H736.859V418.309H741.482V416.621H735.137V415.285H749.498V416.621ZM748.145 409.59H745.859V412.596H748.074V413.949H736.525V412.596H738.758V409.59H736.455V408.236H748.145V409.59ZM738.512 421.947H746.123V419.627H738.512V421.947ZM744.189 412.596V409.59H740.41V412.596H744.189ZM763.736 423.529H762.066V407.744H763.736V423.529ZM755.316 408.922C756.096 408.922 756.793 409.15 757.408 409.607C758.023 410.059 758.504 410.703 758.85 411.541C759.201 412.373 759.377 413.34 759.377 414.441C759.377 415.549 759.201 416.521 758.85 417.359C758.504 418.197 758.023 418.845 757.408 419.302C756.793 419.753 756.096 419.979 755.316 419.979C754.525 419.979 753.822 419.753 753.207 419.302C752.592 418.845 752.108 418.2 751.757 417.368C751.411 416.53 751.238 415.555 751.238 414.441C751.238 413.334 751.411 412.364 751.757 411.532C752.108 410.694 752.592 410.05 753.207 409.599C753.822 409.147 754.525 408.922 755.316 408.922ZM755.316 410.416C754.83 410.416 754.399 410.58 754.024 410.908C753.655 411.236 753.368 411.705 753.163 412.314C752.958 412.918 752.855 413.627 752.855 414.441C752.855 415.262 752.958 415.977 753.163 416.586C753.368 417.195 753.655 417.664 754.024 417.992C754.399 418.32 754.83 418.484 755.316 418.484C755.797 418.484 756.222 418.32 756.591 417.992C756.96 417.664 757.247 417.195 757.452 416.586C757.657 415.977 757.76 415.262 757.76 414.441C757.76 413.627 757.657 412.918 757.452 412.314C757.247 411.705 756.96 411.236 756.591 410.908C756.222 410.58 755.797 410.416 755.316 410.416ZM785.006 416.621H778.643V418.309H783.248V423.301H772.367V418.309H776.99V416.621H770.645V415.285H785.006V416.621ZM783.652 409.59H781.367V412.596H783.582V413.949H772.033V412.596H774.266V409.59H771.963V408.236H783.652V409.59ZM774.02 421.947H781.631V419.627H774.02V421.947ZM779.697 412.596V409.59H775.918V412.596H779.697ZM791.791 410.117C791.791 410.715 791.943 411.298 792.248 411.866C792.559 412.435 792.998 412.941 793.566 413.387C794.141 413.826 794.809 414.16 795.57 414.389L794.779 415.707C793.895 415.438 793.127 415.027 792.477 414.477C791.826 413.92 791.325 413.272 790.974 412.534C790.61 413.36 790.089 414.084 789.409 414.705C788.729 415.32 787.936 415.777 787.027 416.076L786.201 414.758C786.975 414.5 787.657 414.128 788.249 413.642C788.847 413.149 789.307 412.596 789.629 411.98C789.957 411.365 790.121 410.738 790.121 410.1V409.854H786.693V408.5H795.184V409.854H791.791V410.117ZM799.314 415.848H797.662V412.525H794.727V411.172H797.662V407.744H799.314V415.848ZM799.314 420.506H790.719V422H799.877V423.318H789.049V419.24H797.662V417.904H789.014V416.568H799.314V420.506ZM814.801 423.529H813.131V407.744H814.801V423.529ZM806.381 408.922C807.16 408.922 807.857 409.15 808.473 409.607C809.088 410.059 809.568 410.703 809.914 411.541C810.266 412.373 810.441 413.34 810.441 414.441C810.441 415.549 810.266 416.521 809.914 417.359C809.568 418.197 809.088 418.845 808.473 419.302C807.857 419.753 807.16 419.979 806.381 419.979C805.59 419.979 804.887 419.753 804.271 419.302C803.656 418.845 803.173 418.2 802.821 417.368C802.476 416.53 802.303 415.555 802.303 414.441C802.303 413.334 802.476 412.364 802.821 411.532C803.173 410.694 803.656 410.05 804.271 409.599C804.887 409.147 805.59 408.922 806.381 408.922ZM806.381 410.416C805.895 410.416 805.464 410.58 805.089 410.908C804.72 411.236 804.433 411.705 804.228 412.314C804.022 412.918 803.92 413.627 803.92 414.441C803.92 415.262 804.022 415.977 804.228 416.586C804.433 417.195 804.72 417.664 805.089 417.992C805.464 418.32 805.895 418.484 806.381 418.484C806.861 418.484 807.286 418.32 807.655 417.992C808.024 417.664 808.312 417.195 808.517 416.586C808.722 415.977 808.824 415.262 808.824 414.441C808.824 413.627 808.722 412.918 808.517 412.314C808.312 411.705 808.024 411.236 807.655 410.908C807.286 410.58 806.861 410.416 806.381 410.416ZM823.748 415.092H819.424V418.414C820.361 418.408 821.243 418.379 822.069 418.326C822.901 418.268 823.76 418.168 824.645 418.027L824.785 419.363C823.783 419.539 822.84 419.656 821.955 419.715C821.07 419.773 820.045 419.809 818.879 419.82H817.807V413.721H822.131V410.768H817.789V409.396H823.748V415.092ZM830.832 423.494H829.232V415.232H827.193V422.686H825.664V408.061H827.193V413.879H829.232V407.744H830.832V423.494ZM847.285 421.525H832.871V420.137H836.316V416.023C835.66 415.66 835.15 415.2 834.787 414.644C834.424 414.087 834.242 413.463 834.242 412.771C834.242 411.957 834.488 411.239 834.98 410.618C835.479 409.997 836.167 409.517 837.046 409.177C837.925 408.831 838.924 408.658 840.043 408.658C841.168 408.658 842.17 408.831 843.049 409.177C843.934 409.517 844.622 409.997 845.114 410.618C845.612 411.239 845.861 411.957 845.861 412.771C845.861 413.457 845.686 414.075 845.334 414.626C844.982 415.171 844.484 415.625 843.84 415.988V420.137H847.285V421.525ZM840.043 409.994C839.223 409.994 838.496 410.108 837.863 410.337C837.23 410.56 836.738 410.882 836.387 411.304C836.035 411.72 835.859 412.209 835.859 412.771C835.859 413.328 836.035 413.817 836.387 414.239C836.738 414.661 837.23 414.989 837.863 415.224C838.496 415.452 839.223 415.566 840.043 415.566C840.857 415.566 841.581 415.452 842.214 415.224C842.853 414.989 843.351 414.661 843.708 414.239C844.065 413.817 844.244 413.328 844.244 412.771C844.244 412.215 844.065 411.726 843.708 411.304C843.356 410.882 842.861 410.56 842.223 410.337C841.59 410.108 840.863 409.994 840.043 409.994ZM842.152 420.137V416.63C841.514 416.788 840.811 416.867 840.043 416.867C839.305 416.867 838.613 416.791 837.969 416.639V420.137H842.152Z" fill="#1B1C1D"/>
<rect x="573" y="495" width="184" height="37" rx="15" fill="#FFFFFE"/>
<rect x="573" y="495" width="184" height="37" rx="15" stroke="#0051B3" stroke-width="2"/>
<path d="M599.711 517.328H598.041V511.422H594.965C594.848 512.049 594.599 512.603 594.218 513.083C593.843 513.563 593.371 513.938 592.803 514.208C592.234 514.472 591.613 514.604 590.939 514.604C590.154 514.604 589.448 514.437 588.821 514.103C588.194 513.763 587.702 513.294 587.345 512.696C586.987 512.099 586.809 511.422 586.809 510.666C586.809 509.91 586.987 509.236 587.345 508.645C587.702 508.047 588.194 507.581 588.821 507.247C589.448 506.913 590.154 506.746 590.939 506.746C591.631 506.746 592.264 506.887 592.838 507.168C593.418 507.443 593.896 507.83 594.271 508.328C594.651 508.826 594.892 509.4 594.991 510.051H598.041V505.762H599.711V517.328ZM600.133 521.16H589.48V516.15H591.15V519.807H600.133V521.16ZM590.939 508.205C590.453 508.205 590.017 508.308 589.63 508.513C589.249 508.718 588.95 509.008 588.733 509.383C588.517 509.752 588.408 510.18 588.408 510.666C588.408 511.152 588.517 511.586 588.733 511.967C588.95 512.342 589.252 512.635 589.639 512.846C590.025 513.057 590.459 513.162 590.939 513.162C591.408 513.162 591.833 513.057 592.214 512.846C592.595 512.635 592.894 512.342 593.11 511.967C593.327 511.586 593.436 511.152 593.436 510.666C593.436 510.186 593.327 509.758 593.11 509.383C592.894 509.008 592.595 508.718 592.214 508.513C591.839 508.308 591.414 508.205 590.939 508.205ZM615.654 521.494H614.055V505.744H615.654V521.494ZM612.455 520.703H610.873V512.688H608.43V511.316H610.873V506.078H612.455V520.703ZM606.883 510.139C606.883 511.053 607.006 511.94 607.252 512.802C607.504 513.657 607.876 514.434 608.368 515.131C608.866 515.828 609.473 516.385 610.188 516.801L609.186 518.031C608.453 517.592 607.826 516.994 607.305 516.238C606.783 515.482 606.382 514.618 606.101 513.646C605.813 514.7 605.4 515.641 604.861 516.467C604.322 517.287 603.678 517.932 602.928 518.4L601.908 517.152C602.629 516.713 603.241 516.124 603.745 515.386C604.255 514.647 604.639 513.827 604.896 512.925C605.154 512.017 605.283 511.088 605.283 510.139V508.873H602.383V507.52H609.59V508.873H606.883V510.139ZM634.357 511.844H636.889V513.215H634.357V521.529H632.688V505.744H634.357V511.844ZM630.121 508.609H624.426V516.221C625.82 516.215 627.045 516.174 628.1 516.098C629.16 516.021 630.227 515.887 631.299 515.693L631.51 517.1C630.426 517.293 629.359 517.428 628.311 517.504C627.268 517.574 626.061 517.609 624.689 517.609H624.021H622.756V507.256H630.121V508.609ZM643.428 509.752C643.422 510.701 643.595 511.636 643.946 512.556C644.304 513.47 644.799 514.284 645.432 514.999C646.07 515.714 646.791 516.25 647.594 516.607L646.592 517.926C645.695 517.498 644.901 516.868 644.21 516.036C643.519 515.198 642.985 514.237 642.61 513.153C642.241 514.319 641.702 515.351 640.993 516.247C640.29 517.144 639.473 517.82 638.541 518.277L637.521 516.871C638.336 516.508 639.062 515.957 639.701 515.219C640.346 514.48 640.847 513.634 641.204 512.679C641.562 511.718 641.74 510.742 641.74 509.752V507.062H643.428V509.752ZM650.688 521.529H649.018V505.744H650.688V521.529ZM661.955 506.254C662.623 506.254 663.235 506.368 663.792 506.597C664.349 506.825 664.812 507.145 665.181 507.555H669.057V505.744H670.709V513.76H669.057V512.107H665.216C664.847 512.535 664.381 512.866 663.818 513.101C663.256 513.329 662.635 513.443 661.955 513.443C661.164 513.443 660.455 513.294 659.828 512.995C659.201 512.69 658.709 512.266 658.352 511.721C658 511.17 657.824 510.543 657.824 509.84C657.824 509.148 658 508.53 658.352 507.985C658.709 507.44 659.201 507.016 659.828 506.711C660.455 506.406 661.164 506.254 661.955 506.254ZM661.955 507.625C661.469 507.619 661.032 507.71 660.646 507.897C660.265 508.085 659.966 508.349 659.749 508.688C659.532 509.022 659.424 509.406 659.424 509.84C659.424 510.285 659.532 510.678 659.749 511.018C659.966 511.357 660.265 511.624 660.646 511.817C661.026 512.005 661.463 512.102 661.955 512.107C662.436 512.102 662.863 512.005 663.238 511.817C663.619 511.624 663.915 511.357 664.126 511.018C664.343 510.678 664.451 510.285 664.451 509.84C664.451 509.406 664.343 509.022 664.126 508.688C663.915 508.349 663.619 508.085 663.238 507.897C662.857 507.71 662.43 507.619 661.955 507.625ZM670.709 518.453H662.113V519.965H671.271V521.301H660.443V517.205H669.057V515.834H660.408V514.533H670.709V518.453ZM665.91 508.873C666.004 509.201 666.051 509.523 666.051 509.84C666.051 510.174 666.007 510.49 665.919 510.789H669.057V508.873H665.91ZM677.424 506.922C678.133 506.922 678.771 507.115 679.34 507.502C679.908 507.883 680.368 508.431 680.72 509.146C681.077 509.854 681.297 510.689 681.379 511.65H684.631V505.744H686.283V521.529H684.631V513.004H681.396C681.338 514.012 681.133 514.891 680.781 515.641C680.43 516.391 679.964 516.968 679.384 517.372C678.804 517.776 678.15 517.979 677.424 517.979C676.639 517.979 675.944 517.753 675.341 517.302C674.737 516.845 674.266 516.2 673.926 515.368C673.592 514.53 673.428 513.555 673.434 512.441C673.428 511.334 673.592 510.364 673.926 509.532C674.266 508.694 674.737 508.05 675.341 507.599C675.95 507.147 676.645 506.922 677.424 506.922ZM677.424 508.416C676.949 508.416 676.53 508.58 676.167 508.908C675.804 509.236 675.52 509.705 675.314 510.314C675.115 510.918 675.016 511.627 675.016 512.441C675.016 513.262 675.115 513.977 675.314 514.586C675.52 515.195 675.804 515.664 676.167 515.992C676.53 516.32 676.949 516.484 677.424 516.484C677.898 516.484 678.317 516.32 678.681 515.992C679.044 515.664 679.325 515.195 679.524 514.586C679.729 513.977 679.832 513.262 679.832 512.441C679.832 511.627 679.729 510.918 679.524 510.314C679.325 509.705 679.044 509.236 678.681 508.908C678.317 508.58 677.898 508.416 677.424 508.416ZM703.07 515.975H696.672V521.477H695.037V515.975H688.709V514.621H703.07V515.975ZM701.717 508.012H696.848C696.854 508.65 697.1 509.26 697.586 509.84C698.078 510.414 698.737 510.903 699.563 511.308C700.39 511.706 701.295 511.973 702.279 512.107L701.664 513.426C700.803 513.291 699.991 513.065 699.229 512.749C698.468 512.427 697.8 512.028 697.226 511.554C696.651 511.073 696.206 510.537 695.89 509.945C695.415 510.836 694.662 511.589 693.631 512.204C692.605 512.813 691.445 513.221 690.15 513.426L689.518 512.107C690.49 511.973 691.387 511.706 692.207 511.308C693.033 510.903 693.692 510.414 694.185 509.84C694.677 509.26 694.932 508.65 694.949 508.012H690.045V506.676H701.717V508.012ZM718.979 513.303H716.535V521.477H714.865V505.744H716.535V511.932H718.979V513.303ZM706.516 516.133C708.918 516.133 711.25 515.898 713.512 515.43L713.705 516.836C712.451 517.088 711.206 517.267 709.97 517.372C708.739 517.472 707.471 517.521 706.164 517.521H704.863V507.273H706.516V516.133ZM734.236 519.525H719.822V518.137H723.268V514.023C722.611 513.66 722.102 513.2 721.738 512.644C721.375 512.087 721.193 511.463 721.193 510.771C721.193 509.957 721.439 509.239 721.932 508.618C722.43 507.997 723.118 507.517 723.997 507.177C724.876 506.831 725.875 506.658 726.994 506.658C728.119 506.658 729.121 506.831 730 507.177C730.885 507.517 731.573 507.997 732.065 508.618C732.563 509.239 732.812 509.957 732.812 510.771C732.812 511.457 732.637 512.075 732.285 512.626C731.934 513.171 731.436 513.625 730.791 513.988V518.137H734.236V519.525ZM726.994 507.994C726.174 507.994 725.447 508.108 724.814 508.337C724.182 508.56 723.689 508.882 723.338 509.304C722.986 509.72 722.811 510.209 722.811 510.771C722.811 511.328 722.986 511.817 723.338 512.239C723.689 512.661 724.182 512.989 724.814 513.224C725.447 513.452 726.174 513.566 726.994 513.566C727.809 513.566 728.532 513.452 729.165 513.224C729.804 512.989 730.302 512.661 730.659 512.239C731.017 511.817 731.195 511.328 731.195 510.771C731.195 510.215 731.017 509.726 730.659 509.304C730.308 508.882 729.812 508.56 729.174 508.337C728.541 508.108 727.814 507.994 726.994 507.994ZM729.104 518.137V514.63C728.465 514.788 727.762 514.867 726.994 514.867C726.256 514.867 725.564 514.791 724.92 514.639V518.137H729.104ZM737.963 516.221C737.969 515.482 738.042 514.885 738.183 514.428C738.329 513.965 738.531 513.596 738.789 513.32C739.047 513.039 739.393 512.764 739.826 512.494C740.693 511.955 741.127 511.281 741.127 510.473C741.127 510.115 741.042 509.802 740.872 509.532C740.708 509.257 740.479 509.046 740.187 508.899C739.899 508.753 739.58 508.68 739.229 508.68C738.9 508.68 738.593 508.75 738.306 508.891C738.019 509.025 737.781 509.233 737.594 509.515C737.412 509.796 737.307 510.145 737.277 510.561H735.379C735.402 509.84 735.584 509.219 735.924 508.697C736.27 508.17 736.729 507.771 737.304 507.502C737.878 507.232 738.52 507.098 739.229 507.098C739.979 507.098 740.641 507.241 741.215 507.528C741.795 507.81 742.243 508.205 742.56 508.715C742.882 509.225 743.043 509.811 743.043 510.473C743.043 511.152 742.891 511.741 742.586 512.239C742.281 512.731 741.836 513.156 741.25 513.514C740.887 513.73 740.6 513.956 740.389 514.19C740.184 514.425 740.028 514.703 739.923 515.025C739.823 515.348 739.768 515.746 739.756 516.221V516.326H737.963V516.221ZM738.93 520.123C738.707 520.123 738.496 520.067 738.297 519.956C738.104 519.845 737.951 519.692 737.84 519.499C737.729 519.306 737.676 519.098 737.682 518.875C737.676 518.652 737.729 518.444 737.84 518.251C737.951 518.058 738.104 517.905 738.297 517.794C738.496 517.683 738.707 517.627 738.93 517.627C739.146 517.627 739.352 517.683 739.545 517.794C739.738 517.905 739.891 518.058 740.002 518.251C740.119 518.444 740.178 518.652 740.178 518.875C740.178 519.098 740.119 519.306 740.002 519.499C739.891 519.692 739.738 519.845 739.545 519.956C739.352 520.067 739.146 520.123 738.93 520.123Z" fill="#1B1C1D"/>
<path d="M1109.61 317.569C1109.61 267.89 1149.89 227.617 1199.56 227.617H1208.56C1258.24 227.617 1298.51 267.89 1298.51 317.569V501.971H1109.61V317.569Z" fill="#FFFFFE" stroke="#0051B3" stroke-width="4.49761"/>
<g filter="url(#filter1_b_1334_61693)">
<path d="M1113.15 499.133L621 688H1360.66C1362.05 688 1363.01 686.63 1362.55 685.327L1296.47 500.327C1296.19 499.531 1295.44 499 1294.59 499H1113.87C1113.63 499 1113.38 499.045 1113.15 499.133Z" fill="white" fill-opacity="0.65"/>
<path d="M1113.15 499.133L621 688H1360.66C1362.05 688 1363.01 686.63 1362.55 685.327L1296.47 500.327C1296.19 499.531 1295.44 499 1294.59 499H1113.87C1113.63 499 1113.38 499.045 1113.15 499.133Z" stroke="#F3F8FE" stroke-linecap="round"/>
</g>
<path d="M577.148 191.1C575.384 191.1 573.908 190.092 573.728 188.328C573.548 186.6 574.484 185.196 576.32 184.8C581.072 183.756 585.428 179.724 586.184 173.676C586.472 171.408 588.056 170.436 590 170.436C592.16 170.436 593.708 171.876 593.636 174.252C593.6 175.368 593.42 176.484 593.168 177.564C599.216 177.708 605.444 181.92 606.128 191.1H598.82C598.172 186.24 594.644 183.288 590.36 183.396C587.084 187.932 581.9 191.1 577.148 191.1ZM593.672 197.112H603.824C605.984 197.112 606.848 198.588 606.848 200.064C606.848 201.612 605.948 203.016 603.824 203.016H576.176C574.052 203.016 573.152 201.612 573.152 200.064C573.152 198.588 574.016 197.112 576.176 197.112H586.328V192.144C586.328 189.804 588.092 189.084 590 189.084C591.872 189.084 593.672 189.84 593.672 192.144V197.112ZM629.672 185.952H640.112C641.984 185.952 642.848 186.996 642.848 188.472C642.848 189.984 641.948 190.956 640.112 190.956H611.888C610.052 190.956 609.152 189.984 609.152 188.472C609.152 186.996 610.016 185.952 611.888 185.952H622.328V185.304C622.328 185.016 622.364 184.728 622.4 184.476H614.732C611.924 184.476 610.628 183.288 610.628 180.732V174C610.628 171.48 611.924 170.292 614.732 170.292H639.14C640.472 170.292 641.228 171.156 641.228 172.344C641.228 173.568 640.436 174.396 639.14 174.396H618.476C618.08 174.396 617.828 174.612 617.828 175.008V175.656H639.176C640.4 175.656 641.012 176.412 641.012 177.456C641.012 178.5 640.364 179.22 639.176 179.22H617.828V179.868C617.828 180.3 618.08 180.516 618.476 180.516H639.572C640.904 180.516 641.66 181.308 641.66 182.496C641.66 183.756 640.868 184.476 639.572 184.476H629.6C629.636 184.728 629.672 185.016 629.672 185.304V185.952ZM616.964 192.144H635.036C639.68 192.144 641.84 194.448 641.84 197.976C641.84 201.54 639.68 203.844 635.036 203.844H616.964C612.32 203.844 610.16 201.54 610.16 197.976C610.16 194.448 612.32 192.144 616.964 192.144ZM619.088 199.128H632.948C634.1 199.128 634.532 198.696 634.532 197.976C634.532 197.292 634.1 196.824 632.948 196.824H619.088C617.9 196.824 617.468 197.292 617.468 197.976C617.468 198.696 617.9 199.128 619.088 199.128ZM646.196 181.272V180.372C646.196 175.368 649.868 170.832 655.952 170.832H668.012C674.096 170.832 677.804 175.368 677.804 180.372V181.272C677.804 186.276 674.096 190.812 668.012 190.812H655.952C649.868 190.812 646.196 186.276 646.196 181.272ZM670.316 181.344V180.3C670.316 178.248 668.588 176.7 666.14 176.7H657.824C655.376 176.7 653.684 178.248 653.684 180.3V181.344C653.684 183.396 655.376 184.944 657.824 184.944H666.14C668.588 184.944 670.316 183.396 670.316 181.344ZM648.248 196.932H675.752C677.984 196.932 678.848 198.516 678.848 199.992C678.848 201.504 677.948 203.016 675.752 203.016H648.248C646.052 203.016 645.152 201.504 645.152 199.992C645.152 198.516 646.016 196.932 648.248 196.932ZM701.672 197.112H711.824C713.984 197.112 714.848 198.588 714.848 200.064C714.848 201.612 713.948 203.016 711.824 203.016H684.176C682.052 203.016 681.152 201.612 681.152 200.064C681.152 198.588 682.016 197.112 684.176 197.112H694.328V192.108H689.576C684.896 192.108 682.448 189.66 682.448 185.772V185.124C682.448 181.272 684.896 178.896 689.576 178.896H705.308V177.744C705.308 177.276 705.164 176.736 704.336 176.736H685.58C683.888 176.736 682.844 175.332 682.844 173.856C682.844 172.452 683.888 171.012 685.58 171.012H706.496C711.392 171.012 712.796 173.244 712.796 176.628V184.332H691.448C690.62 184.332 690.224 184.728 690.224 185.412C690.224 186.168 690.62 186.492 691.448 186.492H710.996C712.976 186.492 713.732 188.004 713.732 189.336C713.732 190.668 712.94 192.108 710.996 192.108H701.672V197.112ZM596.804 230.16H577.976C575.636 230.16 574.664 228.936 574.664 227.28C574.664 225.732 575.6 224.436 577.976 224.436H600.62C603.572 224.436 604.796 225.768 604.796 228.288V229.764C604.796 232.896 604.544 234.948 604.148 236.208H597.056C597.416 234.948 597.704 233.688 597.704 231.564V230.952C597.704 230.304 597.452 230.16 596.804 230.16ZM591.332 237.612H603.86C605.984 237.612 606.848 239.016 606.848 240.492C606.848 242.004 605.948 243.336 603.86 243.336H576.14C574.052 243.336 573.152 242.004 573.152 240.492C573.152 239.016 574.016 237.612 576.14 237.612H583.988V235.524C583.988 233.184 585.752 232.464 587.66 232.464C589.532 232.464 591.332 233.22 591.332 235.524V237.612ZM581.216 244.884H598.784C603.68 244.884 605.84 247.584 605.84 251.364C605.84 255.144 603.68 257.844 598.784 257.844H581.216C576.32 257.844 574.16 255.144 574.16 251.364C574.16 247.584 576.32 244.884 581.216 244.884ZM583.196 252.768H596.804C597.992 252.768 598.532 252.192 598.532 251.364C598.532 250.536 597.992 249.96 596.804 249.96H583.196C582.008 249.96 581.468 250.536 581.468 251.364C581.468 252.192 582.008 252.768 583.196 252.768ZM639.644 242.112H639.824C641.984 242.112 642.848 243.588 642.848 245.064C642.848 246.576 641.948 248.016 639.824 248.016H629.672V257.916H622.328V248.016H612.176C610.052 248.016 609.152 246.576 609.152 245.064C609.152 243.588 610.016 242.112 612.176 242.112H632.228C633.38 240.132 633.956 237.576 633.956 233.904V231.924C633.956 231.42 633.632 231.024 633.056 231.024H613.508C611.348 231.024 610.34 229.404 610.34 227.928C610.34 226.488 611.312 224.832 613.508 224.832H635.504C639.752 224.832 641.048 226.452 641.048 229.98V233.4C641.048 236.856 640.508 239.808 639.644 242.112ZM675.824 237.648H651.308C648.068 237.648 646.412 235.992 646.412 233.544V233.256C646.412 230.736 648.032 229.368 651.308 229.368H669.56V228.972C669.56 228.504 669.416 228.36 668.84 228.36H648.752C647.42 228.36 646.736 227.352 646.736 226.38C646.736 225.408 647.348 224.328 648.752 224.328H673.016C676.004 224.328 676.976 225.444 676.976 227.46V232.644H654.872C654.332 232.644 654.116 232.788 654.116 233.148C654.116 233.508 654.332 233.652 654.872 233.652H675.824C677.264 233.652 677.804 234.66 677.804 235.704C677.804 236.604 677.264 237.648 675.824 237.648ZM647.78 238.692H676.22C677.984 238.692 678.848 239.556 678.848 241.032C678.848 242.544 677.948 243.336 676.22 243.336H647.78C646.052 243.336 645.152 242.544 645.152 241.032C645.152 239.556 646.016 238.692 647.78 238.692ZM676.364 257.736H650.696C647.6 257.736 646.16 255.864 646.16 253.524V253.416C646.16 251.076 647.564 249.384 650.696 249.384H669.956V248.736C669.956 248.412 669.812 248.268 669.416 248.268H648.572C647.24 248.268 646.52 247.368 646.52 246.324C646.52 245.28 647.132 244.38 648.572 244.38H673.34C676.4 244.38 677.372 245.532 677.372 247.728V252.696H654.44C654.08 252.696 653.9 252.984 653.9 253.272C653.9 253.524 654.08 253.812 654.44 253.812H676.364C677.84 253.812 678.38 254.748 678.38 255.792C678.38 256.836 677.876 257.736 676.364 257.736ZM720.33 223.932C722.238 223.932 723.93 225.156 723.93 227.496V257.736H716.73V227.496C716.73 225.156 718.422 223.932 720.33 223.932ZM705.39 237.108C711.69 239.628 714.642 245.136 713.994 255.684H707.01C707.73 249.996 706.83 245.928 704.13 243.768C702.546 249.132 699.774 252.876 695.958 255.18C694.086 256.332 691.818 256.116 690.846 254.856C689.874 253.704 689.766 251.616 691.386 250.5C696.894 246.756 698.514 241.356 698.514 231.312V228.504C698.514 226.2 700.242 225.012 702.114 225.012C703.95 225.012 705.678 226.308 705.678 228.504V231.276C705.678 233.364 705.57 235.308 705.39 237.108ZM759.03 230.592H760.146C762.342 230.592 762.99 232.284 762.99 233.724C762.99 235.2 762.306 236.856 760.146 236.856H759.03V243.696H751.83V227.496C751.83 225.156 753.522 223.932 755.43 223.932C757.338 223.932 759.03 225.156 759.03 227.496V230.592ZM730.806 243.804C729.042 243.84 727.53 242.796 727.494 240.996C727.494 239.484 728.25 238.476 729.69 238.224C733.038 237.648 734.91 235.2 734.91 232.068V230.844H730.374C728.682 230.844 727.746 229.296 727.746 228C727.746 226.704 728.538 225.084 730.374 225.084H746.862C748.698 225.084 749.49 226.704 749.49 228C749.49 229.296 748.554 230.844 746.862 230.844H741.75V232.068C741.75 232.5 741.714 232.896 741.678 233.292C747.222 233.616 749.886 236.712 749.742 243.156H743.01C743.262 240.564 741.966 238.584 739.95 238.476C737.862 241.824 734.226 243.768 730.806 243.804ZM732.498 245.172H754.098C758.598 245.172 759.426 246.396 759.426 250.716V257.736H752.154V251.652C752.154 251.112 751.866 250.788 751.29 250.788H732.498C730.518 250.788 729.402 249.672 729.402 247.98C729.402 246.288 730.518 245.172 732.498 245.172ZM793.338 223.932C795.246 223.932 796.47 225.156 796.47 227.028V257.736H790.17V242.976H788.37V257.736H782.07V227.028C782.07 225.156 783.33 223.932 785.238 223.932C787.146 223.932 788.37 225.156 788.37 227.028V237H790.17V227.028C790.17 225.156 791.43 223.932 793.338 223.932ZM775.374 227.784H778.542C780.306 227.784 781.242 229.08 781.242 230.592C781.242 231.852 780.558 233.004 779.334 233.328C779.622 234.156 779.766 235.056 779.766 236.1V248.304C779.766 254.316 776.958 257.232 771.99 257.232C767.058 257.232 764.214 254.316 764.214 248.304V236.1C764.214 235.056 764.358 234.156 764.682 233.328C763.458 232.968 762.774 231.852 762.774 230.592C762.774 229.08 763.674 227.784 765.438 227.784H768.606V227.316C768.606 225.336 769.722 224.004 771.99 224.004C774.258 224.004 775.374 225.336 775.374 227.316V227.784ZM773.502 249.492V235.164C773.502 233.724 772.998 233.004 771.99 233.004C770.982 233.004 770.478 233.724 770.478 235.164V249.492C770.478 250.932 770.982 251.688 771.99 251.688C772.998 251.688 773.502 250.932 773.502 249.492ZM822.462 243.732H809.682C803.814 243.732 800.322 239.52 800.322 234.696V233.868C800.322 229.044 803.814 224.832 809.682 224.832H822.462C828.33 224.832 831.858 229.044 831.858 233.868V234.696C831.858 239.52 828.33 243.732 822.462 243.732ZM807.774 233.832V234.732C807.774 236.604 809.286 238.008 811.554 238.008H820.59C822.858 238.008 824.406 236.604 824.406 234.732V233.832C824.406 231.96 822.858 230.556 820.59 230.556H811.554C809.286 230.556 807.774 231.96 807.774 233.832ZM826.422 251.292H829.95C832.074 251.292 832.938 252.696 832.938 254.172C832.938 255.684 832.038 257.016 829.95 257.016H802.23C800.142 257.016 799.242 255.684 799.242 254.172C799.242 252.696 800.106 251.292 802.23 251.292H805.758V247.872C805.758 245.604 807.342 244.884 809.25 244.884C811.122 244.884 812.742 245.64 812.742 247.872V251.292H819.438V247.872C819.438 245.604 821.022 244.884 822.93 244.884C824.802 244.884 826.422 245.64 826.422 247.872V251.292ZM843.702 248.232H836.358V228.36C836.358 226.02 838.122 224.796 840.03 224.796C841.902 224.796 843.702 226.056 843.702 228.36V248.232ZM836.178 253.56C836.178 251.328 837.618 249.924 840.03 249.924C842.442 249.924 843.882 251.364 843.882 253.56C843.882 255.756 842.442 257.196 840.03 257.196C837.618 257.196 836.178 255.792 836.178 253.56Z" fill="#FFFFFE"/>
<path d="M1199.02 193.485C1201.08 207.172 1201 234.124 1184.21 232.44C1177.01 232.264 1163.21 224.228 1169.14 193.485" stroke="#0068E6" stroke-width="11.5076" stroke-linecap="round"/>
<path d="M1214.36 218.091V222.025M1214.36 232.515V222.025M1214.36 222.025C1216.26 219.985 1220.04 217.654 1223.7 220.276" stroke="#0068E6" stroke-width="4.93182" stroke-linecap="round"/>
<path d="M1230.48 218.091V222.025M1230.48 232.515V222.025M1230.48 222.025C1232.38 219.985 1236.17 217.654 1239.82 220.276" stroke="#0068E6" stroke-width="4.93182" stroke-linecap="round"/>
<path d="M1186.22 404C1190.64 433.435 1190.47 491.398 1154.37 487.775C1138.88 487.398 1109.21 470.115 1121.95 404" stroke="#9AEC5B" stroke-width="24.7479" stroke-linecap="round"/>
<path d="M1222.53 432.565L1222.09 427.722" stroke="#9AEC5B" stroke-width="1.82473" stroke-linecap="round"/>
<path d="M1221.79 439.54C1224.22 440.192 1226.72 438.748 1227.37 436.314C1228.03 433.881 1227.67 431.672 1224.15 430.727C1221.71 430.075 1219.21 431.519 1218.56 433.953C1217.91 436.386 1219.35 438.888 1221.79 439.54Z" fill="#9AEC5B"/>
<path d="M1190.42 455.493C1198.05 462.252 1217.09 462.915 1221.94 437.758" stroke="#9AEC5B" stroke-width="3.64946" stroke-linecap="round"/>
<path d="M1090.43 452.762C1088.67 453.235 1086.08 454.153 1086.73 456.587C1088.15 461.875 1090.36 462.227 1092.79 461.575C1095.23 460.923 1097.32 457.416 1095.55 454.225C1093.72 450.937 1092.19 452.29 1090.43 452.762Z" fill="#9AEC5B"/>
<path d="M1125.2 459.12C1117.58 464.753 1101.8 470.498 1093.44 460.451" stroke="#9AEC5B" stroke-width="3.64946" stroke-linecap="round"/>
<path d="M1171.11 525.978L1170.56 517.536M1169.08 495.024L1170.56 517.536M1170.56 517.536C1174.91 521.646 1176.07 522.001 1183.54 515.858" stroke="#9AEC5B" stroke-width="10.6062" stroke-linecap="round"/>
<path d="M1137.09 525.348L1142.57 517.137M1143.7 495.485L1142.57 517.137M1142.57 517.137C1146.61 521.553 1142.56 528.084 1151.69 524.434" stroke="#9AEC5B" stroke-width="10.6062" stroke-linecap="round"/>
</g>
<defs>
<filter id="filter0_f_1334_61693" x="1054.52" y="181.517" width="297.967" height="359.809" filterUnits="userSpaceOnUse" color-interpolation-filters="sRGB">
<feFlood flood-opacity="0" result="BackgroundImageFix"/>
<feBlend mode="normal" in="SourceGraphic" in2="BackgroundImageFix" result="shape"/>
<feGaussianBlur stdDeviation="15.7416" result="effect1_foregroundBlur_1334_61693"/>
</filter>
<filter id="filter1_b_1334_61693" x="616.82" y="494.5" width="750.344" height="198" filterUnits="userSpaceOnUse" color-interpolation-filters="sRGB">
<feFlood flood-opacity="0" result="BackgroundImageFix"/>
<feGaussianBlur in="BackgroundImageFix" stdDeviation="2"/>
<feComposite in2="SourceAlpha" operator="in" result="effect1_backgroundBlur_1334_61693"/>
<feBlend mode="normal" in="SourceGraphic" in2="effect1_backgroundBlur_1334_61693" result="shape"/>
</filter>
<linearGradient id="paint0_linear_1334_61693" x1="-1.43051e-05" y1="344" x2="1920" y2="344" gradientUnits="userSpaceOnUse">
<stop stop-color="#54A2FF"/>
<stop offset="0.505" stop-color="#80BAFF"/>
<stop offset="1" stop-color="#54A2FF"/>
</linearGradient>
<clipPath id="clip0_1334_61693">
<rect width="1920" height="688" fill="white"/>
</clipPath>
</defs>
</svg>
